<?xml version="1.0" standalone="no"?>
<!DOCTYPE svg PUBLIC "-//W3C//DTD SVG 20010904//EN"
 "http://www.w3.org/TR/2001/REC-SVG-20010904/DTD/svg10.dtd">
<svg version="1.0" xmlns="http://www.w3.org/2000/svg"
 width="512.000000pt" height="512.000000pt" viewBox="0 0 512.000000 512.000000"
 preserveAspectRatio="xMidYMid meet">

<g transform="translate(0.000000,512.000000) scale(0.100000,-0.100000)"
fill="#056772" stroke="none">
<path d="M4419 4897 c-20 -8 -73 -35 -118 -61 l-82 -47 -43 21 c-55 26 -130
35 -181 21 -22 -6 -400 -218 -839 -471 -438 -253 -803 -460 -811 -460 -7 0
-18 7 -25 15 -20 24 -113 47 -157 39 -51 -9 -170 -75 -210 -116 -57 -59 -78
-146 -53 -214 21 -54 444 -780 474 -813 41 -44 100 -71 158 -71 36 0 65 10
125 41 43 22 91 53 107 67 41 39 65 98 66 162 l1 55 260 149 c142 82 267 155
276 161 15 11 14 14 -12 31 -46 30 -113 130 -135 201 -85 274 119 553 405 553
197 0 374 -145 416 -340 l11 -51 41 24 c206 116 324 187 353 211 45 37 82 111
90 181 l7 55 83 46 c133 72 183 144 171 246 -5 36 -25 82 -73 166 -36 64 -76
128 -88 140 -50 56 -152 83 -217 59z"/>
<path d="M3566 3938 c-60 -16 -130 -91 -145 -155 -23 -96 21 -193 110 -237 88
-44 176 -30 245 39 153 153 -1 411 -210 353z"/>
<path d="M4041 3644 c-34 -135 -118 -240 -238 -297 -62 -29 -77 -32 -165 -32
-54 0 -98 -2 -98 -4 0 -2 16 -29 35 -61 95 -157 145 -332 152 -540 10 -272
-59 -505 -215 -726 -124 -175 -346 -348 -530 -412 l-33 -11 30 -38 c17 -21 88
-131 159 -243 l128 -205 73 -3 c67 -3 77 0 136 33 150 84 341 244 462 389 204
243 342 529 403 841 28 139 38 402 21 542 -32 261 -132 543 -264 747 l-44 68
-12 -48z"/>
<path d="M462 2549 c-49 -14 -118 -88 -132 -141 -26 -95 14 -196 98 -245 l47
-28 674 -3 c772 -3 750 -5 819 73 96 110 68 265 -59 329 l-53 26 -680 -1
c-401 0 -695 -5 -714 -10z"/>
<path d="M941 1858 c148 -297 387 -558 669 -733 l91 -56 77 3 76 3 128 205
c71 112 142 222 159 243 l30 38 -33 11 c-124 42 -300 160 -415 278 l-70 70
-372 0 -371 0 31 -62z"/>
<path d="M2487 1510 c-114 -29 -155 -74 -352 -389 l-170 -271 -376 0 c-406 0
-434 -3 -525 -56 -59 -35 -141 -125 -169 -186 -36 -80 -49 -169 -34 -231 16
-68 85 -138 151 -155 35 -9 432 -12 1551 -12 1695 0 1574 -6 1645 76 73 82 77
196 11 330 -38 81 -136 173 -216 206 -57 23 -65 23 -453 26 l-396 3 -166 267
c-174 279 -222 337 -300 372 -54 24 -148 33 -201 20z m136 -244 c103 -43 128
-177 48 -257 -65 -65 -157 -65 -222 0 -124 123 13 325 174 257z"/>
</g>
</svg>
